<svg width="70" height="70" viewBox="0 0 70 70" fill="none" xmlns="http://www.w3.org/2000/svg">
<g clip-path="url(#clip0_3116_21196)">
<path d="M34.7505 0C15.5582 0 0 15.5582 0 34.7505C0 53.9429 15.5582 69.5011 34.7505 69.5011C53.9429 69.5011 69.5011 53.9429 69.5011 34.7505C69.5011 15.5582 53.9418 0 34.7505 0ZM40.8623 49.1649C40.4231 49.2992 40.088 48.7687 40.3973 48.4282C41.9857 46.6788 44.1851 43.1455 40.8065 39.3266C36.0178 33.915 33.8151 35.1125 28.9781 25.9174C28.9781 25.9174 27.829 28.7429 28.0685 30.2754C28.308 31.8079 28.5475 32.622 27.829 33.436C27.1105 34.2501 26.2009 35.0641 27.0633 35.6387C27.9256 36.2132 28.0051 36.4044 27.7334 36.7717C27.4617 37.139 27.4628 37.5063 27.8451 37.7619C27.8451 37.7619 27.3661 38.3042 27.8451 38.6715C28.3241 39.0388 28.2285 39.4372 28.148 39.725C28.0685 40.0128 27.9879 41.0814 29.1693 41.0975C29.8426 41.1061 30.9466 40.9654 31.882 40.9461C32.8164 40.9268 33.6809 41.4347 34.1223 42.2584C34.8171 43.5536 35.5248 45.8196 33.3684 47.5798C30.4172 49.9876 25.418 50.2013 21.7473 48.3187C21.395 48.1383 21.4283 47.6217 21.802 47.4918C23.3958 46.9344 25.8959 45.4727 26.1418 42.3207C26.4769 38.011 21.6517 30.995 25.9625 24.4815C30.2722 17.9681 40.3619 19.3449 43.6331 22.949C48.6376 28.4615 53.3404 45.3503 40.8645 49.1649H40.8623Z" fill="#DFC2BF"/>
</g>
<defs>
<clipPath id="clip0_3116_21196">
<rect width="69.5" height="69.5" fill="white"/>
</clipPath>
</defs>
</svg>
